# Blender v2.79 (sub 0) OBJ File: ''
# www.blender.org
mtllib checkerDisk.mtl
o Circle_Circle.002
v 0.270814 0.030327 -9.767214
v -1.680089 0.030327 -9.575067
v -3.556020 0.030327 -9.006009
v -5.284888 0.030327 -8.081910
v -6.800253 0.030327 -6.838282
v -8.043882 0.030327 -5.322916
v -8.967981 0.030327 -3.594048
v -9.537039 0.030327 -1.718117
v -9.729186 0.030327 0.232785
v -9.537039 0.030327 2.183688
v -8.967981 0.030327 4.059619
v -8.043882 0.030327 5.788488
v -6.800253 0.030327 7.303854
v -5.284887 0.030327 8.547482
v -3.556018 0.030327 9.471582
v -1.680086 0.030327 10.040639
v 0.270818 0.030327 10.232786
v 2.221722 0.030327 10.040638
v 4.097653 0.030327 9.471580
v 5.826521 0.030327 8.547480
v 7.341887 0.030327 7.303850
v 8.585514 0.030327 5.788483
v 9.509612 0.030327 4.059613
v 10.078669 0.030327 2.183681
v 10.270814 0.030327 0.232777
v 10.078665 0.030327 -1.718127
v 9.509604 0.030327 -3.594059
v 8.585504 0.030327 -5.322927
v 7.341873 0.030327 -6.838290
v 5.826506 0.030327 -8.081918
v 4.097635 0.030327 -9.006015
v 2.221703 0.030327 -9.575069
v 0.486773 1.814227 -9.874073
v -1.464131 1.814227 -9.681926
v -3.340062 1.814227 -9.112868
v -5.068930 1.814227 -8.188769
v -6.584295 1.814227 -6.945141
v -7.827923 1.814227 -5.429775
v -8.752023 1.814227 -3.700908
v -9.321080 1.814227 -1.824977
v -9.513227 1.814227 0.125926
v -9.321081 1.814227 2.076829
v -8.752024 1.814227 3.952760
v -7.827923 1.814227 5.681629
v -6.584295 1.814227 7.196995
v -5.068929 1.814227 8.440623
v -3.340060 1.814227 9.364723
v -1.464128 1.814227 9.933780
v 0.486776 1.814227 10.125927
v 2.437680 1.814227 9.933779
v 4.313612 1.814227 9.364720
v 6.042480 1.814227 8.440620
v 7.557845 1.814227 7.196990
v 8.801473 1.814227 5.681623
v 9.725571 1.814227 3.952754
v 10.294626 1.814227 2.076822
v 10.486773 1.814227 0.125917
v 10.294622 1.814227 -1.824987
v 9.725563 1.814227 -3.700918
v 8.801461 1.814227 -5.429786
v 7.557831 1.814227 -6.945149
v 6.042464 1.814227 -8.188777
v 4.313593 1.814227 -9.112874
v 2.437661 1.814227 -9.681929
vt 0.0000 0.0000
vt 0.0000 0.0000
vt 0.0000 0.0000
vt 0.0000 0.0000
vt 0.0000 0.0000
vt 0.0000 0.0000
vt 0.0000 0.0000
vt 0.0000 0.0000
vt 0.0000 0.0000
vt 0.0000 0.0000
vt 0.0000 0.0000
vt 0.0000 0.0000
vt 0.0000 0.0000
vt 0.0000 0.0000
vt 0.0000 0.0000
vt 0.0000 0.0000
vt 0.0000 0.0000
vt 0.0000 0.0000
vt 0.0000 0.0000
vt 0.0000 0.0000
vt 0.0000 0.0000
vt 0.0000 0.0000
vt 0.0000 0.0000
vt 0.0000 0.0000
vt 0.0000 0.0000
vt 0.0000 0.0000
vt 0.0000 0.0000
vt 0.0000 0.0000
vt 0.0000 0.0000
vt 0.0000 0.0000
vt 0.0000 0.0000
vt 0.0000 0.0000
vt 0.0000 0.0000
vt 0.0000 0.0000
vt 0.0000 0.0000
vt 0.0000 0.0000
vt 0.0000 0.0000
vt 0.0000 0.0000
vt 0.0000 0.0000
vt 0.0000 0.0000
vt 0.0000 0.0000
vt 0.0000 0.0000
vt 0.0000 0.0000
vt 0.0000 0.0000
vt 0.0000 0.0000
vt 0.0000 0.0000
vt 0.0000 0.0000
vt 0.0000 0.0000
vt 0.0000 0.0000
vt 0.0000 0.0000
vt 0.0000 0.0000
vt 0.0000 0.0000
vt 0.0000 0.0000
vt 0.0000 0.0000
vt 0.0000 0.0000
vt 0.0000 0.0000
vt 0.0000 0.0000
vt 0.0000 0.0000
vt 0.0000 0.0000
vt 0.0000 0.0000
vt 0.0000 0.0000
vt 0.0000 0.0000
vt 0.0000 0.0000
vt 0.0000 0.0000
vt 0.4160 0.9788
vt 0.6111 0.9788
vt 0.5135 0.9884
vt 0.7913 0.9041
vt 0.7049 0.9503
vt 0.2358 0.9041
vt 0.8671 0.8419
vt 0.1600 0.8419
vt 0.0978 0.7661
vt 0.9755 0.6797
vt 0.9293 0.7661
vt 0.0516 0.6797
vt 1.0039 0.5859
vt 0.0231 0.5859
vt 0.0135 0.4884
vt 0.0516 0.2970
vt 0.0978 0.2106
vt 0.1600 0.1348
vt 1.0039 0.3908
vt 1.0135 0.4884
vt 0.2358 0.0726
vt 0.4160 -0.0020
vt 0.7049 0.0264
vt 0.0231 0.3908
vt 0.9755 0.2970
vt 0.7913 0.0726
vt 0.9293 0.2106
vt 0.8671 0.1348
vt 0.4160 0.9980
vt 0.6111 0.9980
vt 0.7049 1.0264
vt 0.3222 0.0264
vt 0.3222 0.9503
vt 0.5135 0.9884
vn 0.8792 -0.0783 0.4700
vn 0.8792 -0.0783 0.4700
vn 0.8792 -0.0783 0.4700
vn -0.6341 0.0305 -0.7727
vn -0.6341 0.0305 -0.7727
vn -0.6341 0.0305 -0.7727
vn 0.9523 -0.0980 0.2889
vn 0.9523 -0.0980 0.2889
vn 0.9523 -0.0980 0.2889
vn -0.7718 0.0555 -0.6334
vn -0.7718 0.0555 -0.6334
vn -0.7718 0.0555 -0.6334
vn 0.9887 -0.1139 0.0974
vn 0.9887 -0.1139 0.0974
vn 0.9887 -0.1139 0.0974
vn -0.8792 0.0783 -0.4699
vn -0.8792 0.0783 -0.4699
vn -0.8792 0.0783 -0.4699
vn 0.9873 -0.1254 -0.0972
vn 0.9873 -0.1254 -0.0972
vn 0.9873 -0.1254 -0.0972
vn -0.9523 0.0980 -0.2889
vn -0.9523 0.0980 -0.2889
vn -0.9523 0.0980 -0.2889
vn 0.9486 -0.1321 -0.2877
vn 0.9486 -0.1321 -0.2877
vn 0.9486 -0.1321 -0.2877
vn -0.9887 0.1139 -0.0974
vn -0.9887 0.1139 -0.0974
vn -0.9887 0.1139 -0.0974
vn 0.8740 -0.1338 -0.4672
vn 0.8740 -0.1338 -0.4672
vn 0.8740 -0.1338 -0.4672
vn -0.9873 0.1254 0.0972
vn -0.9873 0.1254 0.0972
vn -0.9873 0.1254 0.0972
vn 0.7664 -0.1305 -0.6290
vn 0.7664 -0.1305 -0.6290
vn 0.7664 -0.1305 -0.6290
vn -0.9486 0.1321 0.2877
vn -0.9486 0.1321 0.2877
vn -0.9486 0.1321 0.2877
vn 0.6296 -0.1222 -0.7672
vn 0.6296 -0.1222 -0.7672
vn 0.6296 -0.1222 -0.7672
vn -0.8740 0.1338 0.4672
vn -0.8740 0.1338 0.4672
vn -0.8740 0.1338 0.4672
vn 0.4686 -0.1092 -0.8766
vn 0.4686 -0.1092 -0.8766
vn 0.4686 -0.1092 -0.8766
vn 0.0979 0.0477 0.9941
vn 0.0979 0.0477 0.9941
vn 0.0979 0.0477 0.9941
vn -0.7664 0.1305 0.6290
vn -0.7664 0.1305 0.6290
vn -0.7664 0.1305 0.6290
vn 0.2891 -0.0921 -0.9529
vn 0.2891 -0.0921 -0.9529
vn 0.2891 -0.0921 -0.9529
vn 0.2902 0.0222 0.9567
vn 0.2902 0.0222 0.9567
vn 0.2902 0.0222 0.9567
vn -0.6296 0.1222 0.7672
vn -0.6296 0.1222 0.7672
vn -0.6296 0.1222 0.7672
vn 0.0978 -0.0713 -0.9927
vn 0.0978 -0.0713 -0.9927
vn 0.0978 -0.0713 -0.9927
vn 0.4714 -0.0042 0.8819
vn 0.4714 -0.0042 0.8819
vn 0.4714 -0.0042 0.8819
vn -0.4686 0.1092 0.8766
vn -0.4686 0.1092 0.8766
vn -0.4686 0.1092 0.8766
vn -0.0979 -0.0477 -0.9941
vn -0.0979 -0.0477 -0.9941
vn -0.0979 -0.0477 -0.9941
vn 0.6341 -0.0305 0.7727
vn 0.6341 -0.0305 0.7727
vn 0.6341 -0.0305 0.7727
vn -0.2891 0.0921 0.9529
vn -0.2891 0.0921 0.9529
vn -0.2891 0.0921 0.9529
vn -0.2902 -0.0222 -0.9567
vn -0.2902 -0.0222 -0.9567
vn -0.2902 -0.0222 -0.9567
vn 0.7718 -0.0555 0.6334
vn 0.7718 -0.0555 0.6334
vn 0.7718 -0.0555 0.6334
vn -0.0978 0.0713 0.9927
vn -0.0978 0.0713 0.9927
vn -0.0978 0.0713 0.9927
vn -0.4714 0.0042 -0.8819
vn -0.4714 0.0042 -0.8819
vn -0.4714 0.0042 -0.8819
vn 0.0000 -1.0000 0.0000
vn 0.0000 -1.0000 0.0000
vn 0.0000 -1.0000 0.0000
vn 0.0000 1.0000 0.0000
vn 0.0000 1.0000 0.0000
vn 0.0000 1.0000 0.0000
vn 0.0000 -1.0000 -0.0000
vn 0.0000 -1.0000 -0.0000
vn 0.0000 -1.0000 -0.0000
vn 0.0000 -1.0000 -0.0000
vn 0.0000 -1.0000 -0.0000
vn 0.0000 -1.0000 -0.0000
vn 0.0000 -1.0000 0.0000
vn 0.0000 -1.0000 0.0000
vn 0.0000 -1.0000 0.0000
vn 0.0000 -1.0000 -0.0000
vn 0.0000 -1.0000 -0.0000
vn 0.0000 -1.0000 -0.0000
vn 0.0000 -1.0000 0.0000
vn 0.0000 -1.0000 0.0000
vn 0.0000 -1.0000 0.0000
vn 0.0000 -1.0000 0.0000
vn 0.0000 -1.0000 0.0000
vn 0.0000 -1.0000 0.0000
vn 0.0000 -1.0000 0.0000
vn 0.0000 -1.0000 0.0000
vn 0.0000 -1.0000 0.0000
vn 0.0000 -1.0000 -0.0000
vn 0.0000 -1.0000 -0.0000
vn 0.0000 -1.0000 -0.0000
vn 0.0000 -1.0000 -0.0000
vn 0.0000 -1.0000 -0.0000
vn 0.0000 -1.0000 -0.0000
vn 0.0000 -1.0000 0.0000
vn 0.0000 -1.0000 0.0000
vn 0.0000 -1.0000 0.0000
vn 0.0000 -1.0000 -0.0000
vn 0.0000 -1.0000 -0.0000
vn 0.0000 -1.0000 -0.0000
vn 0.0000 -1.0000 0.0000
vn 0.0000 -1.0000 0.0000
vn 0.0000 -1.0000 0.0000
vn 0.0000 -1.0000 -0.0000
vn 0.0000 -1.0000 -0.0000
vn 0.0000 -1.0000 -0.0000
vn 0.0000 -1.0000 0.0000
vn 0.0000 -1.0000 0.0000
vn 0.0000 -1.0000 0.0000
vn 0.0000 -1.0000 0.0000
vn 0.0000 -1.0000 0.0000
vn 0.0000 -1.0000 0.0000
vn 0.0000 -1.0000 -0.0000
vn 0.0000 -1.0000 -0.0000
vn 0.0000 -1.0000 -0.0000
vn 0.0000 -1.0000 0.0000
vn 0.0000 -1.0000 0.0000
vn 0.0000 -1.0000 0.0000
vn 0.0000 -1.0000 0.0000
vn 0.0000 -1.0000 0.0000
vn 0.0000 -1.0000 0.0000
vn 0.0000 -1.0000 -0.0000
vn 0.0000 -1.0000 -0.0000
vn 0.0000 -1.0000 -0.0000
vn 0.0000 -1.0000 0.0000
vn 0.0000 -1.0000 0.0000
vn 0.0000 -1.0000 0.0000
vn 0.0000 -1.0000 -0.0000
vn 0.0000 -1.0000 -0.0000
vn 0.0000 -1.0000 -0.0000
vn 0.0000 -1.0000 0.0000
vn 0.0000 -1.0000 0.0000
vn 0.0000 -1.0000 0.0000
vn 0.0000 -1.0000 -0.0000
vn 0.0000 -1.0000 -0.0000
vn 0.0000 -1.0000 -0.0000
vn 0.0000 -1.0000 0.0000
vn 0.0000 -1.0000 0.0000
vn 0.0000 -1.0000 0.0000
vn 0.0000 -1.0000 -0.0000
vn 0.0000 -1.0000 -0.0000
vn 0.0000 -1.0000 -0.0000
vn 0.0000 -1.0000 0.0000
vn 0.0000 -1.0000 0.0000
vn 0.0000 -1.0000 0.0000
vn 0.0000 -1.0000 0.0000
vn 0.0000 -1.0000 0.0000
vn 0.0000 -1.0000 0.0000
vn 0.0000 -1.0000 -0.0000
vn 0.0000 -1.0000 -0.0000
vn 0.0000 -1.0000 -0.0000
vn 0.0000 -1.0000 -0.0000
vn 0.0000 -1.0000 -0.0000
vn 0.0000 -1.0000 -0.0000
vn 0.0000 1.0000 0.0000
vn 0.0000 1.0000 0.0000
vn 0.0000 1.0000 0.0000
vn 0.0000 1.0000 0.0000
vn 0.0000 1.0000 0.0000
vn 0.0000 1.0000 0.0000
vn 0.0000 1.0000 0.0000
vn 0.0000 1.0000 0.0000
vn 0.0000 1.0000 0.0000
vn 0.0000 1.0000 0.0000
vn 0.0000 1.0000 0.0000
vn 0.0000 1.0000 0.0000
vn 0.0000 1.0000 -0.0000
vn 0.0000 1.0000 -0.0000
vn 0.0000 1.0000 -0.0000
vn 0.0000 1.0000 0.0000
vn 0.0000 1.0000 0.0000
vn 0.0000 1.0000 0.0000
vn 0.0000 1.0000 0.0000
vn 0.0000 1.0000 0.0000
vn 0.0000 1.0000 0.0000
vn 0.0000 1.0000 0.0000
vn 0.0000 1.0000 0.0000
vn 0.0000 1.0000 0.0000
vn 0.0000 1.0000 0.0000
vn 0.0000 1.0000 0.0000
vn 0.0000 1.0000 0.0000
vn 0.0000 1.0000 -0.0000
vn 0.0000 1.0000 -0.0000
vn 0.0000 1.0000 -0.0000
vn 0.0000 1.0000 0.0000
vn 0.0000 1.0000 0.0000
vn 0.0000 1.0000 0.0000
vn 0.0000 1.0000 0.0000
vn 0.0000 1.0000 0.0000
vn 0.0000 1.0000 0.0000
vn 0.0000 1.0000 0.0000
vn 0.0000 1.0000 0.0000
vn 0.0000 1.0000 0.0000
vn 0.0000 1.0000 0.0000
vn 0.0000 1.0000 0.0000
vn 0.0000 1.0000 0.0000
vn 0.0000 1.0000 -0.0000
vn 0.0000 1.0000 -0.0000
vn 0.0000 1.0000 -0.0000
vn 0.0000 1.0000 0.0000
vn 0.0000 1.0000 0.0000
vn 0.0000 1.0000 0.0000
vn 0.0000 1.0000 0.0000
vn 0.0000 1.0000 0.0000
vn 0.0000 1.0000 0.0000
vn 0.0000 1.0000 0.0000
vn 0.0000 1.0000 0.0000
vn 0.0000 1.0000 0.0000
vn 0.0000 1.0000 0.0000
vn 0.0000 1.0000 0.0000
vn 0.0000 1.0000 0.0000
vn 0.0000 1.0000 -0.0000
vn 0.0000 1.0000 -0.0000
vn 0.0000 1.0000 -0.0000
vn 0.0000 1.0000 -0.0000
vn 0.0000 1.0000 -0.0000
vn 0.0000 1.0000 -0.0000
vn 0.0000 1.0000 0.0000
vn 0.0000 1.0000 0.0000
vn 0.0000 1.0000 0.0000
vn 0.0000 1.0000 0.0000
vn 0.0000 1.0000 0.0000
vn 0.0000 1.0000 0.0000
vn 0.0000 1.0000 0.0000
vn 0.0000 1.0000 0.0000
vn 0.0000 1.0000 0.0000
vn 0.0000 1.0000 -0.0000
vn 0.0000 1.0000 -0.0000
vn 0.0000 1.0000 -0.0000
vn 0.0000 1.0000 0.0000
vn 0.0000 1.0000 0.0000
vn 0.0000 1.0000 0.0000
vn 0.0000 1.0000 0.0000
vn 0.0000 1.0000 0.0000
vn 0.0000 1.0000 0.0000
vn 0.0000 1.0000 0.0000
vn 0.0000 1.0000 0.0000
vn 0.0000 1.0000 0.0000
vn 0.0000 1.0000 -0.0000
vn 0.0000 1.0000 -0.0000
vn 0.0000 1.0000 -0.0000
vn 0.8792 -0.0783 0.4700
vn 0.8792 -0.0783 0.4700
vn 0.8792 -0.0783 0.4700
vn -0.6341 0.0305 -0.7727
vn -0.6341 0.0305 -0.7727
vn -0.6341 0.0305 -0.7727
vn 0.9523 -0.0980 0.2889
vn 0.9523 -0.0980 0.2889
vn 0.9523 -0.0980 0.2889
vn -0.7718 0.0555 -0.6334
vn -0.7718 0.0555 -0.6334
vn -0.7718 0.0555 -0.6334
vn 0.9887 -0.1139 0.0974
vn 0.9887 -0.1139 0.0974
vn 0.9887 -0.1139 0.0974
vn -0.8792 0.0783 -0.4699
vn -0.8792 0.0783 -0.4699
vn -0.8792 0.0783 -0.4699
vn 0.9873 -0.1254 -0.0972
vn 0.9873 -0.1254 -0.0972
vn 0.9873 -0.1254 -0.0972
vn -0.9523 0.0980 -0.2889
vn -0.9523 0.0980 -0.2889
vn -0.9523 0.0980 -0.2889
vn 0.9486 -0.1321 -0.2877
vn 0.9486 -0.1321 -0.2877
vn 0.9486 -0.1321 -0.2877
vn -0.9887 0.1139 -0.0974
vn -0.9887 0.1139 -0.0974
vn -0.9887 0.1139 -0.0974
vn 0.8740 -0.1338 -0.4672
vn 0.8740 -0.1338 -0.4672
vn 0.8740 -0.1338 -0.4672
vn -0.9873 0.1254 0.0972
vn -0.9873 0.1254 0.0972
vn -0.9873 0.1254 0.0972
vn 0.7664 -0.1305 -0.6290
vn 0.7664 -0.1305 -0.6290
vn 0.7664 -0.1305 -0.6290
vn -0.9486 0.1321 0.2877
vn -0.9486 0.1321 0.2877
vn -0.9486 0.1321 0.2877
vn 0.6296 -0.1222 -0.7672
vn 0.6296 -0.1222 -0.7672
vn 0.6296 -0.1222 -0.7672
vn -0.8740 0.1338 0.4672
vn -0.8740 0.1338 0.4672
vn -0.8740 0.1338 0.4672
vn 0.4686 -0.1092 -0.8766
vn 0.4686 -0.1092 -0.8766
vn 0.4686 -0.1092 -0.8766
vn 0.0979 0.0477 0.9941
vn 0.0979 0.0477 0.9941
vn 0.0979 0.0477 0.9941
vn -0.7664 0.1305 0.6290
vn -0.7664 0.1305 0.6290
vn -0.7664 0.1305 0.6290
vn 0.2891 -0.0921 -0.9529
vn 0.2891 -0.0921 -0.9529
vn 0.2891 -0.0921 -0.9529
vn 0.2902 0.0222 0.9567
vn 0.2902 0.0222 0.9567
vn 0.2902 0.0222 0.9567
vn -0.6296 0.1222 0.7672
vn -0.6296 0.1222 0.7672
vn -0.6296 0.1222 0.7672
vn 0.0978 -0.0713 -0.9927
vn 0.0978 -0.0713 -0.9927
vn 0.0978 -0.0713 -0.9927
vn 0.4714 -0.0042 0.8819
vn 0.4714 -0.0042 0.8819
vn 0.4714 -0.0042 0.8819
vn -0.4686 0.1092 0.8766
vn -0.4686 0.1092 0.8766
vn -0.4686 0.1092 0.8766
vn -0.0979 -0.0477 -0.9941
vn -0.0979 -0.0477 -0.9941
vn -0.0979 -0.0477 -0.9941
vn 0.6341 -0.0305 0.7727
vn 0.6341 -0.0305 0.7727
vn 0.6341 -0.0305 0.7727
vn -0.2890 0.0921 0.9529
vn -0.2890 0.0921 0.9529
vn -0.2890 0.0921 0.9529
vn -0.2902 -0.0222 -0.9567
vn -0.2902 -0.0222 -0.9567
vn -0.2902 -0.0222 -0.9567
vn 0.7718 -0.0555 0.6334
vn 0.7718 -0.0555 0.6334
vn 0.7718 -0.0555 0.6334
vn -0.0978 0.0713 0.9927
vn -0.0978 0.0713 0.9927
vn -0.0978 0.0713 0.9927
vn -0.4714 0.0042 -0.8819
vn -0.4714 0.0042 -0.8819
vn -0.4714 0.0042 -0.8819
usemtl Material.003
s off
f 6/1/1 39/2/2 7/3/3
f 21/4/4 52/5/5 53/6/6
f 7/3/7 40/7/8 8/8/9
f 22/9/10 53/6/11 54/10/12
f 8/8/13 41/11/14 9/12/15
f 23/13/16 54/10/17 55/14/18
f 9/12/19 42/15/20 10/16/21
f 24/17/22 55/14/23 56/18/24
f 10/16/25 43/19/26 11/20/27
f 25/21/28 56/18/29 57/22/30
f 12/23/31 43/19/32 44/24/33
f 26/25/34 57/22/35 58/26/36
f 13/27/37 44/24/38 45/28/39
f 27/29/40 58/26/41 59/30/42
f 14/31/43 45/28/44 46/32/45
f 27/29/46 60/33/47 28/34/48
f 15/35/49 46/32/50 47/36/51
f 1/37/52 34/38/53 2/39/54
f 28/34/55 61/40/56 29/41/57
f 16/42/58 47/36/59 48/43/60
f 2/39/61 35/44/62 3/45/63
f 29/41/64 62/46/65 30/47/66
f 17/48/67 48/43/68 49/49/69
f 3/45/70 36/50/71 4/51/72
f 30/47/73 63/52/74 31/53/75
f 18/54/76 49/49/77 50/55/78
f 4/51/79 37/56/80 5/57/81
f 31/53/82 64/58/83 32/59/84
f 19/60/85 50/55/86 51/61/87
f 5/57/88 38/62/89 6/1/90
f 32/59/91 33/63/92 1/37/93
f 20/64/94 51/61/95 52/5/96
f 64/58/97 34/38/98 33/63/99
f 2/65/100 32/66/101 1/67/102
f 64/58/103 63/52/104 62/46/105
f 34/38/106 62/46/107 36/50/108
f 35/44/109 34/38/110 36/50/111
f 61/40/112 36/50/113 62/46/114
f 61/40/115 37/56/116 36/50/117
f 60/33/118 38/62/119 61/40/120
f 64/58/121 62/46/122 34/38/123
f 59/30/124 38/62/125 60/33/126
f 59/30/127 39/2/128 38/62/129
f 58/26/130 39/2/131 59/30/132
f 58/26/133 40/7/134 39/2/135
f 57/22/136 40/7/137 58/26/138
f 57/22/139 41/11/140 40/7/141
f 56/18/142 41/11/143 57/22/144
f 56/18/145 54/10/146 41/11/147
f 54/10/148 43/19/149 41/11/150
f 43/19/151 42/15/152 41/11/153
f 38/62/154 37/56/155 61/40/156
f 54/10/157 44/24/158 43/19/159
f 53/6/160 44/24/161 54/10/162
f 53/6/163 45/28/164 44/24/165
f 52/5/166 45/28/167 53/6/168
f 52/5/169 46/32/170 45/28/171
f 51/61/172 46/32/173 52/5/174
f 51/61/175 50/55/176 46/32/177
f 46/32/178 50/55/179 48/43/180
f 47/36/181 46/32/182 48/43/183
f 49/49/184 48/43/185 50/55/186
f 56/18/187 55/14/188 54/10/189
f 2/65/190 30/68/191 32/66/192
f 30/68/193 31/69/194 32/66/195
f 30/68/196 2/65/197 4/70/198
f 4/70/199 29/71/200 30/68/201
f 5/72/202 29/71/203 4/70/204
f 5/72/205 6/73/206 29/71/207
f 29/71/208 6/73/209 27/74/210
f 28/75/211 29/71/212 27/74/213
f 7/76/214 27/74/215 6/73/216
f 7/76/217 26/77/218 27/74/219
f 8/78/220 26/77/221 7/76/222
f 8/78/223 9/79/224 26/77/225
f 11/80/226 12/81/227 13/82/228
f 9/79/229 24/83/230 25/84/231
f 14/85/232 16/86/233 19/87/234
f 9/79/235 10/88/236 11/80/237
f 23/89/238 9/79/239 11/80/240
f 11/80/241 20/90/242 23/89/243
f 23/89/244 24/83/245 9/79/246
f 20/90/247 22/91/248 23/89/249
f 20/90/250 11/80/251 13/82/252
f 20/90/253 21/92/254 22/91/255
f 14/85/256 20/90/257 13/82/258
f 14/85/259 19/87/260 20/90/261
f 16/93/262 18/94/263 19/95/264
f 14/85/265 15/96/266 16/86/267
f 2/65/268 3/97/269 4/70/270
f 16/93/271 17/98/272 18/94/273
f 9/79/274 25/84/275 26/77/276
f 6/1/277 38/62/278 39/2/279
f 21/4/280 20/64/281 52/5/282
f 7/3/283 39/2/284 40/7/285
f 22/9/286 21/4/287 53/6/288
f 8/8/289 40/7/290 41/11/291
f 23/13/292 22/9/293 54/10/294
f 9/12/295 41/11/296 42/15/297
f 24/17/298 23/13/299 55/14/300
f 10/16/301 42/15/302 43/19/303
f 25/21/304 24/17/305 56/18/306
f 12/23/307 11/20/308 43/19/309
f 26/25/310 25/21/311 57/22/312
f 13/27/313 12/23/314 44/24/315
f 27/29/316 26/25/317 58/26/318
f 14/31/319 13/27/320 45/28/321
f 27/29/322 59/30/323 60/33/324
f 15/35/325 14/31/326 46/32/327
f 1/37/328 33/63/329 34/38/330
f 28/34/331 60/33/332 61/40/333
f 16/42/334 15/35/335 47/36/336
f 2/39/337 34/38/338 35/44/339
f 29/41/340 61/40/341 62/46/342
f 17/48/343 16/42/344 48/43/345
f 3/45/346 35/44/347 36/50/348
f 30/47/349 62/46/350 63/52/351
f 18/54/352 17/48/353 49/49/354
f 4/51/355 36/50/356 37/56/357
f 31/53/358 63/52/359 64/58/360
f 19/60/361 18/54/362 50/55/363
f 5/57/364 37/56/365 38/62/366
f 32/59/367 64/58/368 33/63/369
f 20/64/370 19/60/371 51/61/372
